<?xml version="1.0" standalone="no"?>
<!DOCTYPE svg PUBLIC "-//W3C//DTD SVG 20010904//EN"
 "http://www.w3.org/TR/2001/REC-SVG-20010904/DTD/svg10.dtd">
<svg version="1.0" xmlns="http://www.w3.org/2000/svg"
 width="512.000000pt" height="512.000000pt" viewBox="0 0 512.000000 512.000000"
 preserveAspectRatio="xMidYMid meet">
<metadata>
Created by potrace 1.11, written by Peter Selinger 2001-2013
</metadata>
<g transform="translate(0.000000,512.000000) scale(0.100000,-0.100000)"
fill="#000000" stroke="none">
<path d="M1300 4806 c-685 -172 -1257 -316 -1273 -319 l-27 -7 0 -1600 0
-1600 1280 -640 1280 -640 1280 640 1280 640 0 1600 0 1599 -37 10 c-21 6
-400 100 -843 211 -443 110 -904 226 -1025 256 -325 83 -658 164 -665 163 -3
0 -565 -141 -1250 -313z m1462 -56 c112 -28 212 -53 223 -55 11 -3 371 -93
800 -200 429 -108 788 -199 798 -203 15 -6 -261 -115 -628 -247 -54 -20 -313
-116 -994 -371 -123 -46 -231 -84 -240 -84 -27 0 -2101 694 -2093 701 4 3 63
20 132 38 69 17 177 45 240 62 275 72 354 93 495 130 83 21 200 52 260 68 61
16 198 52 305 80 107 28 260 69 340 90 80 22 148 40 152 40 5 1 99 -22 210
-49z m-2376 -709 c33 -11 185 -63 339 -116 154 -53 298 -102 320 -110 22 -7
173 -59 335 -115 162 -55 333 -114 380 -130 47 -16 225 -77 395 -135 171 -59
331 -114 358 -122 l47 -15 0 -1473 0 -1473 -1120 560 -1120 559 0 1295 c0 712
2 1294 4 1294 2 0 30 -9 62 -19z"/>
</g>
</svg>
